<?xml version="1.0" encoding="UTF-8" standalone="no"?>
<svg
   xmlns:dc="http://purl.org/dc/elements/1.1/"
   xmlns:cc="http://creativecommons.org/ns#"
   xmlns:rdf="http://www.w3.org/1999/02/22-rdf-syntax-ns#"
   xmlns:svg="http://www.w3.org/2000/svg"
   xmlns="http://www.w3.org/2000/svg"
   id="svg8"
   version="1.1"
   viewBox="0 0 16.000001 16"
   height="16mm"
   width="16mm">
  <defs
     id="defs2">
    <style
       id="style2">
      .cls-1 {
        fill: #069999;
        stroke-width: 0px;
      }
    </style>
  </defs>
  <metadata
     id="metadata5">
    <rdf:RDF>
      <cc:Work
         rdf:about="">
        <dc:format>image/svg+xml</dc:format>
        <dc:type
           rdf:resource="http://purl.org/dc/dcmitype/StillImage" />
        <dc:title></dc:title>
      </cc:Work>
    </rdf:RDF>
  </metadata>
  <g
     transform="translate(-86.330455,-111.57094)"
     id="layer1">
    <g
       id="Capa_4"
       data-name="Capa 4"
       transform="matrix(0.05734767,0,0,0.05734767,89.169165,111.57094)">
      <g
         id="g12">
        <path
           class="cls-1"
           d="M 144,0 H 63 V 99 H 90 V 81 h 54 v 18 h 27 V 0 Z m 0,45 v 9 H 90 V 27 h 54 z"
           id="path6"
           style="fill:#069999;stroke-width:0px" />
        <path
           id="polygon8"
           d="m 63,162 v 27 27 h 27 27 27 27 v -27 -27 -9 -18 -9 h -27 v 9 18 9 27 H 117 90 v -27 -9 -18 -9 H 63 v 9 18 z"
           style="fill:#069999;stroke-width:0px" />
        <path
           id="polygon10"
           d="M 0,279 H 36 180 V 243 H 36 V 0 H 0 Z"
           style="fill:#069999;stroke-width:0px" />
      </g>
    </g>
  </g>
</svg>
